<svg xmlns="http://www.w3.org/2000/svg" viewBox="0 0 64 64" id="threads"><path fill="#020202" fill-rule="evenodd" d="m60,12c0-4.42-3.58-8-8-8H12C7.58,4,4,7.58,4,12v40c0,4.42,3.58,8,8,8h40c4.42,0,8-3.58,8-8V12h0Z"></path><path fill="#fff" fill-rule="evenodd" d="m42.02,30.09c-.47-5.07-3.69-9.59-9.77-9.59-4.41,0-6.41,2.3-7.01,3.16l3.23,2.35s.01,0,.01-.02c0,0,1.04-1.49,3.76-1.49,3,0,4.75,1.89,5.45,4.27-1.13-.2-2.15-.27-2.95-.27-3.96,0-6.49,1.14-8.06,2.57-1.79,1.62-2.44,3.69-2.44,5.43,0,4.75,4.82,6.5,8,6.5,5.11,0,8.44-3.86,9.48-8.46,1.72,1.26,3.02,3.28,3.02,6.46,0,1.19-.61,2.61-1.75,3.91-1.98,2.27-5.54,4.09-10.75,4.09-3.97,0-7.59-1.28-10.21-4.02-2.7-2.82-4.29-7.13-4.29-12.98s2-17.04,14.49-17c11.99.03,14,9.17,14.04,9.35l3.86-1.07c-.47-1.95-3.62-12.24-17.88-12.28-15.65-.05-18.51,13.95-18.51,21s2.12,12.3,5.4,15.74c3.37,3.52,7.99,5.26,13.1,5.26,11.5,0,16.5-7.41,16.5-12,0-6.06-3.21-9.27-6.73-10.91Zm-9.77,8.91c-.86,0-1.98-.18-2.88-.69-.62-.36-1.12-.92-1.12-1.81,0-1.86,1.68-4,6.5-4,.81,0,1.98.09,3.22.38-.44,3.16-2.32,6.12-5.72,6.12Z"></path></svg>